<svg xmlns="http://www.w3.org/2000/svg" xmlns:xlink="http://www.w3.org/1999/xlink" width="1024" zoomAndPan="magnify" viewBox="0 0 768 767.999994" height="1024" preserveAspectRatio="xMidYMid meet" version="1.0"><defs><clipPath id="b53da9a1a8"><path d="M 217 214.304688 L 553 214.304688 L 553 554 L 217 554 Z M 217 214.304688 " clip-rule="nonzero"/></clipPath></defs><g clip-path="url(#b53da9a1a8)"><path fill="#b4b4b4" d="M 291.742188 307.382812 C 291.746094 305.863281 291.785156 304.34375 291.859375 302.824219 C 291.9375 301.304688 292.050781 299.789062 292.199219 298.277344 C 292.351562 296.765625 292.535156 295.257812 292.761719 293.753906 C 292.984375 292.25 293.246094 290.75 293.542969 289.261719 C 293.84375 287.769531 294.175781 286.289062 294.546875 284.8125 C 294.917969 283.339844 295.324219 281.875 295.765625 280.417969 C 296.207031 278.964844 296.683594 277.523438 297.199219 276.089844 C 297.710938 274.660156 298.257812 273.242188 298.839844 271.839844 C 299.421875 270.433594 300.039062 269.042969 300.691406 267.671875 C 301.339844 266.296875 302.023438 264.9375 302.742188 263.597656 C 303.460938 262.257812 304.207031 260.9375 304.992188 259.632812 C 305.773438 258.328125 306.585938 257.042969 307.429688 255.78125 C 308.277344 254.515625 309.152344 253.273438 310.058594 252.054688 C 310.960938 250.832031 311.898438 249.632812 312.863281 248.460938 C 313.828125 247.285156 314.820312 246.132812 315.839844 245.007812 C 316.863281 243.878906 317.910156 242.78125 318.984375 241.703125 C 320.058594 240.628906 321.160156 239.582031 322.285156 238.558594 C 323.414062 237.539062 324.5625 236.546875 325.738281 235.582031 C 326.914062 234.617188 328.109375 233.679688 329.332031 232.777344 C 330.550781 231.871094 331.796875 230.996094 333.058594 230.148438 C 334.324219 229.304688 335.605469 228.492188 336.910156 227.707031 C 338.214844 226.925781 339.535156 226.175781 340.875 225.460938 C 342.214844 224.742188 343.574219 224.058594 344.949219 223.40625 C 346.320312 222.757812 347.710938 222.140625 349.113281 221.558594 C 350.519531 220.972656 351.9375 220.425781 353.367188 219.914062 C 354.796875 219.398438 356.242188 218.921875 357.695312 218.480469 C 359.148438 218.039062 360.613281 217.632812 362.089844 217.261719 C 363.5625 216.890625 365.046875 216.554688 366.535156 216.257812 C 368.027344 215.960938 369.523438 215.699219 371.027344 215.472656 C 372.53125 215.25 374.039062 215.0625 375.554688 214.910156 C 377.066406 214.761719 378.582031 214.648438 380.101562 214.570312 C 381.617188 214.496094 383.136719 214.457031 384.65625 214.453125 C 507.46875 218.796875 507.707031 395.578125 384.972656 400.292969 C 383.449219 400.296875 381.925781 400.265625 380.40625 400.191406 C 378.882812 400.121094 377.363281 400.011719 375.847656 399.867188 C 374.332031 399.722656 372.820312 399.539062 371.3125 399.320312 C 369.804688 399.097656 368.300781 398.839844 366.808594 398.546875 C 365.3125 398.253906 363.824219 397.921875 362.347656 397.554688 C 360.867188 397.191406 359.398438 396.785156 357.941406 396.347656 C 356.484375 395.910156 355.035156 395.433594 353.601562 394.921875 C 352.164062 394.414062 350.742188 393.867188 349.332031 393.289062 C 347.925781 392.707031 346.53125 392.09375 345.152344 391.445312 C 343.773438 390.796875 342.414062 390.113281 341.066406 389.398438 C 339.722656 388.683594 338.394531 387.933594 337.089844 387.152344 C 335.78125 386.375 334.492188 385.5625 333.222656 384.71875 C 331.953125 383.871094 330.707031 383 329.484375 382.09375 C 328.257812 381.1875 327.054688 380.253906 325.875 379.289062 C 324.695312 378.324219 323.542969 377.332031 322.410156 376.308594 C 321.28125 375.289062 320.175781 374.242188 319.097656 373.164062 C 318.015625 372.089844 316.964844 370.988281 315.941406 369.863281 C 314.914062 368.734375 313.917969 367.582031 312.949219 366.40625 C 311.980469 365.230469 311.042969 364.03125 310.132812 362.808594 C 309.222656 361.585938 308.34375 360.34375 307.496094 359.078125 C 306.648438 357.8125 305.832031 356.527344 305.046875 355.222656 C 304.261719 353.914062 303.507812 352.59375 302.789062 351.25 C 302.070312 349.90625 301.382812 348.546875 300.730469 347.171875 C 300.074219 345.792969 299.457031 344.402344 298.871094 342.996094 C 298.285156 341.589844 297.738281 340.167969 297.222656 338.734375 C 296.707031 337.300781 296.226562 335.855469 295.78125 334.398438 C 295.339844 332.941406 294.929688 331.476562 294.558594 329.996094 C 294.1875 328.519531 293.851562 327.035156 293.550781 325.539062 C 293.253906 324.046875 292.992188 322.546875 292.765625 321.039062 C 292.539062 319.53125 292.351562 318.023438 292.203125 316.503906 C 292.050781 314.988281 291.9375 313.472656 291.859375 311.949219 C 291.785156 310.429688 291.746094 308.90625 291.742188 307.382812 Z M 478.699219 400.339844 C 477.464844 399.578125 476.144531 399.011719 474.742188 398.632812 C 473.339844 398.257812 471.914062 398.085938 470.464844 398.121094 C 469.011719 398.160156 467.597656 398.398438 466.214844 398.84375 C 464.832031 399.289062 463.542969 399.921875 462.34375 400.742188 C 460.960938 401.863281 459.554688 402.957031 458.125 404.019531 C 456.695312 405.082031 455.242188 406.113281 453.769531 407.113281 C 452.292969 408.113281 450.796875 409.082031 449.28125 410.019531 C 447.765625 410.953125 446.230469 411.855469 444.675781 412.726562 C 443.117188 413.59375 441.546875 414.429688 439.953125 415.230469 C 438.363281 416.035156 436.753906 416.800781 435.132812 417.535156 C 433.507812 418.265625 431.867188 418.964844 430.214844 419.625 C 428.558594 420.285156 426.890625 420.914062 425.210938 421.503906 C 423.53125 422.09375 421.835938 422.644531 420.132812 423.164062 C 418.425781 423.679688 416.710938 424.160156 414.984375 424.605469 C 413.257812 425.046875 411.523438 425.453125 409.78125 425.820312 C 408.039062 426.191406 406.289062 426.519531 404.53125 426.8125 C 402.773438 427.105469 401.011719 427.363281 399.242188 427.578125 C 397.472656 427.796875 395.699219 427.976562 393.925781 428.117188 C 392.148438 428.257812 390.371094 428.359375 388.589844 428.421875 C 386.808594 428.488281 385.027344 428.515625 383.246094 428.5 C 381.464844 428.488281 379.683594 428.4375 377.902344 428.347656 C 376.125 428.257812 374.347656 428.132812 372.574219 427.964844 C 370.800781 427.800781 369.03125 427.597656 367.265625 427.355469 C 365.5 427.113281 363.742188 426.832031 361.988281 426.515625 C 360.234375 426.199219 358.488281 425.84375 356.75 425.449219 C 355.011719 425.054688 353.285156 424.625 351.566406 424.160156 C 349.84375 423.691406 348.136719 423.1875 346.4375 422.644531 C 344.742188 422.105469 343.054688 421.527344 341.382812 420.914062 C 339.710938 420.300781 338.050781 419.652344 336.40625 418.964844 C 334.761719 418.28125 333.132812 417.5625 331.519531 416.804688 C 329.90625 416.050781 328.308594 415.261719 326.730469 414.4375 C 325.148438 413.613281 323.589844 412.757812 322.046875 411.863281 C 320.503906 410.972656 318.980469 410.050781 317.476562 409.09375 C 315.972656 408.136719 314.492188 407.148438 313.03125 406.125 C 311.570312 405.105469 310.132812 404.054688 308.71875 402.972656 C 307.300781 401.890625 305.910156 400.777344 304.542969 399.632812 C 303.511719 399.160156 302.4375 398.816406 301.324219 398.601562 C 300.207031 398.386719 299.082031 398.3125 297.949219 398.371094 C 296.816406 398.429688 295.707031 398.625 294.617188 398.953125 C 293.53125 399.285156 292.5 399.738281 291.523438 400.316406 C 288.667969 402.21875 285.875 404.203125 283.140625 406.273438 C 280.40625 408.347656 277.742188 410.5 275.140625 412.734375 C 272.539062 414.972656 270.011719 417.285156 267.550781 419.675781 C 265.09375 422.066406 262.710938 424.535156 260.40625 427.070312 C 258.101562 429.609375 255.875 432.21875 253.730469 434.894531 C 251.585938 437.570312 249.523438 440.308594 247.546875 443.109375 C 245.570312 445.914062 243.679688 448.773438 241.882812 451.691406 C 240.082031 454.609375 238.371094 457.582031 236.753906 460.605469 C 235.136719 463.632812 233.613281 466.703125 232.1875 469.820312 C 230.757812 472.9375 229.425781 476.097656 228.195312 479.296875 C 226.960938 482.496094 225.828125 485.734375 224.792969 489.003906 C 223.757812 492.273438 222.828125 495.570312 221.996094 498.898438 C 221.164062 502.226562 220.4375 505.574219 219.8125 508.949219 C 219.1875 512.320312 218.667969 515.707031 218.253906 519.113281 C 217.835938 522.515625 217.527344 525.929688 217.320312 529.351562 C 217.117188 532.777344 217.015625 536.203125 217.019531 539.632812 C 217.019531 540.570312 217.113281 541.5 217.292969 542.417969 C 217.476562 543.335938 217.746094 544.230469 218.105469 545.097656 C 218.464844 545.964844 218.902344 546.785156 219.425781 547.566406 C 219.945312 548.34375 220.539062 549.066406 221.199219 549.730469 C 221.863281 550.390625 222.585938 550.984375 223.363281 551.503906 C 224.144531 552.023438 224.964844 552.464844 225.832031 552.824219 C 226.699219 553.183594 227.589844 553.453125 228.511719 553.636719 C 229.429688 553.816406 230.359375 553.910156 231.296875 553.90625 L 538.492188 553.90625 C 539.429688 553.910156 540.359375 553.816406 541.277344 553.636719 C 542.199219 553.453125 543.089844 553.183594 543.957031 552.824219 C 544.824219 552.464844 545.644531 552.023438 546.425781 551.503906 C 547.203125 550.984375 547.925781 550.390625 548.589844 549.730469 C 549.25 549.066406 549.84375 548.34375 550.363281 547.566406 C 550.886719 546.785156 551.324219 545.964844 551.683594 545.097656 C 552.042969 544.230469 552.3125 543.335938 552.496094 542.417969 C 552.675781 541.5 552.769531 540.570312 552.769531 539.632812 C 552.765625 536.210938 552.660156 532.792969 552.449219 529.375 C 552.234375 525.960938 551.921875 522.554688 551.503906 519.160156 C 551.082031 515.761719 550.5625 512.382812 549.9375 509.019531 C 549.3125 505.652344 548.585938 502.3125 547.753906 498.992188 C 546.925781 495.671875 545.996094 492.378906 544.964844 489.117188 C 543.9375 485.855469 542.808594 482.625 541.582031 479.429688 C 540.355469 476.238281 539.03125 473.082031 537.613281 469.96875 C 536.191406 466.855469 534.679688 463.789062 533.074219 460.765625 C 531.464844 457.746094 529.769531 454.773438 527.980469 451.855469 C 526.195312 448.941406 524.320312 446.078125 522.355469 443.277344 C 520.394531 440.472656 518.347656 437.730469 516.21875 435.050781 C 514.089844 432.375 511.878906 429.761719 509.589844 427.21875 C 507.300781 424.675781 504.9375 422.203125 502.5 419.804688 C 500.058594 417.40625 497.546875 415.082031 494.96875 412.835938 C 492.386719 410.589844 489.738281 408.421875 487.023438 406.339844 C 484.3125 404.253906 481.535156 402.253906 478.699219 400.339844 Z M 478.699219 400.339844 " fill-opacity="1" fill-rule="nonzero"/></g></svg>